<svg width="18" height="18" viewBox="0 0 18 18" fill="none" xmlns="http://www.w3.org/2000/svg">
<path d="M7.70833 3.16665H2.16666C1.74674 3.16665 1.34401 3.33347 1.04708 3.6304C0.750143 3.92733 0.583328 4.33006 0.583328 4.74999V15.8333C0.583328 16.2532 0.750143 16.656 1.04708 16.9529C1.34401 17.2498 1.74674 17.4167 2.16666 17.4167H13.25C13.6699 17.4167 14.0726 17.2498 14.3696 16.9529C14.6665 16.656 14.8333 16.2532 14.8333 15.8333V10.2917M13.6458 1.97915C13.9608 1.66421 14.3879 1.48727 14.8333 1.48727C15.2787 1.48727 15.7059 1.66421 16.0208 1.97915C16.3358 2.2941 16.5127 2.72125 16.5127 3.16665C16.5127 3.61205 16.3358 4.03921 16.0208 4.35415L8.5 11.875L5.33333 12.6667L6.125 9.49999L13.6458 1.97915Z" stroke="white" stroke-linecap="round" stroke-linejoin="round"/>
</svg>
