<svg width="304" height="170" viewBox="0 0 304 170" fill="none" xmlns="http://www.w3.org/2000/svg">
<path d="M77.4073 53.1408C87.0808 53.1408 94.9226 45.299 94.9226 35.6255C94.9226 25.9521 87.0808 18.1103 77.4073 18.1103C67.7339 18.1103 59.8921 25.9521 59.8921 35.6255C59.8921 45.299 67.7339 53.1408 77.4073 53.1408Z" fill="#FDCD03"/>
<path d="M132.333 89.6012H46.4087C46.3011 89.6025 46.1937 89.594 46.0876 89.5757L86.726 19.1842C86.9741 18.7458 87.334 18.3811 87.7691 18.1273C88.2042 17.8736 88.6989 17.7399 89.2025 17.7399C89.7062 17.7399 90.2009 17.8736 90.636 18.1273C91.0711 18.3811 91.431 18.7458 91.6791 19.1842L118.953 66.4224L120.259 68.6827L132.333 89.6012Z" fill="black"/>
<path opacity="0.2" d="M132.333 89.6011H102.996L117.398 68.6825L118.434 67.1757L118.953 66.4225L120.259 68.6825L132.333 89.6011Z" fill="black"/>
<path d="M180.175 89.6012H105.858L120.259 68.6827L121.295 67.1758L140.062 39.9151C141.292 38.1284 144.252 38.0171 145.698 39.5781C145.795 39.6845 145.885 39.7971 145.968 39.9151L180.175 89.6012Z" fill="black"/>
<path d="M201.991 78.0209C204.906 78.0209 207.269 75.6579 207.269 72.7429C207.269 69.828 204.906 67.465 201.991 67.465C199.076 67.465 196.713 69.828 196.713 72.7429C196.713 75.6579 199.076 78.0209 201.991 78.0209Z" fill="#FDCD03"/>
<path d="M202.5 88.6405H201.419L201.911 71.948L202.5 88.6405Z" fill="#3F3D56"/>
<path d="M202.007 75.1117L203.167 73.5059L201.991 75.5092L201.864 75.2867L202.007 75.1117Z" fill="#3F3D56"/>
<path d="M201.879 76.733L200.719 75.1276L201.895 77.1305L202.022 76.908L201.879 76.733Z" fill="#3F3D56"/>
<path d="M250.406 78.0209C253.321 78.0209 255.684 75.6579 255.684 72.7429C255.684 69.828 253.321 67.465 250.406 67.465C247.491 67.465 245.128 69.828 245.128 72.7429C245.128 75.6579 247.491 78.0209 250.406 78.0209Z" fill="#FDCD03"/>
<path d="M250.915 88.6405H249.834L250.327 71.948L250.915 88.6405Z" fill="#3F3D56"/>
<path d="M250.422 75.1117L251.583 73.5059L250.406 75.5092L250.279 75.2867L250.422 75.1117Z" fill="#3F3D56"/>
<path d="M250.295 76.733L249.134 75.1276L250.311 77.1305L250.438 76.908L250.295 76.733Z" fill="#3F3D56"/>
<path d="M217.28 72.9563C221.585 72.9563 225.075 69.4663 225.075 65.1612C225.075 60.8561 221.585 57.3661 217.28 57.3661C212.975 57.3661 209.485 60.8561 209.485 65.1612C209.485 69.4663 212.975 72.9563 217.28 72.9563Z" fill="#FDCD03"/>
<path d="M218.031 88.6404H216.435L217.163 63.9872L218.031 88.6404Z" fill="#3F3D56"/>
<path d="M217.304 68.6595L219.018 66.2883L217.28 69.2467L217.092 68.9179L217.304 68.6595Z" fill="#3F3D56"/>
<path d="M217.116 71.0543L215.402 68.6832L217.139 71.6412L217.327 71.3128L217.116 71.0543Z" fill="#3F3D56"/>
<path d="M236.29 72.9563C240.595 72.9563 244.085 69.4663 244.085 65.1612C244.085 60.8561 240.595 57.3661 236.29 57.3661C231.984 57.3661 228.495 60.8561 228.495 65.1612C228.495 69.4663 231.984 72.9563 236.29 72.9563Z" fill="#FDCD03"/>
<path d="M237.041 88.6404H235.444L236.172 63.9872L237.041 88.6404Z" fill="#3F3D56"/>
<path d="M236.313 68.6595L238.027 66.2883L236.29 69.2467L236.102 68.9179L236.313 68.6595Z" fill="#3F3D56"/>
<path d="M236.125 71.0543L234.411 68.6832L236.149 71.6412L236.337 71.3128L236.125 71.0543Z" fill="#3F3D56"/>
<path d="M186.984 72.9563C191.289 72.9563 194.779 69.4663 194.779 65.1612C194.779 60.8561 191.289 57.3661 186.984 57.3661C182.678 57.3661 179.188 60.8561 179.188 65.1612C179.188 69.4663 182.678 72.9563 186.984 72.9563Z" fill="#FDCD03"/>
<path d="M187.735 88.6404H186.138L186.866 63.9872L187.735 88.6404Z" fill="#3F3D56"/>
<path d="M187.007 68.6595L188.721 66.2883L186.983 69.2467L186.796 68.9179L187.007 68.6595Z" fill="#3F3D56"/>
<path d="M186.819 71.0543L185.105 68.6832L186.843 71.6412L187.03 71.3128L186.819 71.0543Z" fill="#3F3D56"/>
<path d="M279.207 169.635H24.8188C21.6137 169.635 18.4401 169.003 15.479 167.777C12.5179 166.55 9.82734 164.753 7.56101 162.486C5.29469 160.22 3.49694 157.529 2.27041 154.568C1.04388 151.607 0.412598 148.433 0.412598 145.228C0.412598 142.023 1.04388 138.85 2.27041 135.889C3.49694 132.927 5.29469 130.237 7.56101 127.971C9.82734 125.704 12.5179 123.907 15.479 122.68C18.4401 121.454 21.6137 120.822 24.8188 120.822H278.643C281.133 120.822 283.521 119.833 285.281 118.073C287.041 116.312 288.03 113.925 288.03 111.435C288.03 108.946 287.041 106.558 285.281 104.798C283.521 103.037 281.133 102.048 278.643 102.048H16.3705V87.029H278.643C285.116 87.029 291.324 89.6004 295.901 94.1774C300.478 98.7545 303.049 104.962 303.049 111.435C303.049 117.908 300.478 124.116 295.901 128.693C291.324 133.27 285.116 135.841 278.643 135.841H24.8188C22.3292 135.841 19.9416 136.83 18.1812 138.591C16.4208 140.351 15.4318 142.739 15.4318 145.228C15.4318 147.718 16.4208 150.106 18.1812 151.866C19.9416 153.626 22.3292 154.615 24.8188 154.615H279.207V169.635Z" fill="#DADADA"/>
<path d="M37.3973 94.1632H25.7574V94.9141H37.3973V94.1632Z" fill="white"/>
<path d="M70.4396 94.1632H58.7997V94.9141H70.4396V94.1632Z" fill="white"/>
<path d="M103.482 94.1632H91.842V94.9141H103.482V94.1632Z" fill="white"/>
<path d="M136.524 94.1632H124.884V94.9141H136.524V94.1632Z" fill="white"/>
<path d="M169.566 94.1632H157.927V94.9141H169.566V94.1632Z" fill="white"/>
<path d="M202.609 94.1632H190.969V94.9141H202.609V94.1632Z" fill="white"/>
<path d="M235.651 94.1632H224.011V94.9141H235.651V94.1632Z" fill="white"/>
<path d="M268.693 94.1632H257.053V94.9141H268.693V94.1632Z" fill="white"/>
<path d="M37.3973 127.956H25.7574V128.707H37.3973V127.956Z" fill="white"/>
<path d="M70.4396 127.956H58.7997V128.707H70.4396V127.956Z" fill="white"/>
<path d="M103.482 127.956H91.842V128.707H103.482V127.956Z" fill="white"/>
<path d="M136.524 127.956H124.884V128.707H136.524V127.956Z" fill="white"/>
<path d="M169.566 127.956H157.927V128.707H169.566V127.956Z" fill="white"/>
<path d="M202.609 127.956H190.969V128.707H202.609V127.956Z" fill="white"/>
<path d="M235.651 127.956H224.011V128.707H235.651V127.956Z" fill="white"/>
<path d="M268.693 127.956H257.053V128.707H268.693V127.956Z" fill="white"/>
<path d="M37.3973 161.75H25.7574V162.501H37.3973V161.75Z" fill="white"/>
<path d="M70.4396 161.75H58.7997V162.501H70.4396V161.75Z" fill="white"/>
<path d="M103.482 161.75H91.842V162.501H103.482V161.75Z" fill="white"/>
<path d="M136.524 161.75H124.884V162.501H136.524V161.75Z" fill="white"/>
<path d="M169.566 161.75H157.927V162.501H169.566V161.75Z" fill="white"/>
<path d="M202.609 161.75H190.969V162.501H202.609V161.75Z" fill="white"/>
<path d="M235.651 161.75H224.011V162.501H235.651V161.75Z" fill="white"/>
<path d="M268.693 161.75H257.053V162.501H268.693V161.75Z" fill="white"/>
<path d="M201.44 29.804C202.663 29.8028 203.866 30.1136 204.935 30.7071H197.954C199.02 30.1138 200.22 29.803 201.44 29.804Z" fill="#E6E6E6"/>
<path d="M187.894 28.9008C189.936 28.8984 191.929 29.5295 193.598 30.707H182.196C183.863 29.5308 185.853 28.8998 187.894 28.9008Z" fill="#E6E6E6"/>
<path d="M111.158 17.4683C111.406 13.0877 113.201 8.93749 116.224 5.75758C119.247 2.57768 123.301 0.574792 127.664 0.10601C132.026 -0.362773 136.414 0.733023 140.043 3.19803C143.673 5.66304 146.309 9.33703 147.482 13.565C147.706 13.5569 147.93 13.5479 148.157 13.5479C152.156 13.5486 156.048 14.8444 159.251 17.2414C162.453 19.6384 164.792 23.0077 165.92 26.8452C168.571 25.6807 171.532 25.428 174.342 26.1268C177.151 26.8256 179.649 28.4365 181.445 30.707H123.695C122.01 30.7118 120.342 30.3766 118.79 29.7214C117.238 29.0662 115.834 28.1045 114.662 26.8939C113.49 25.6834 112.575 24.2488 111.97 22.6762C111.366 21.1035 111.085 19.4251 111.145 17.7413C111.149 17.6504 111.153 17.5594 111.158 17.4683Z" fill="#E6E6E6"/>
<path d="M205.654 43.3213C204.432 43.3201 203.229 43.631 202.159 44.2244H209.14C208.074 43.6311 206.874 43.3203 205.654 43.3213Z" fill="#E6E6E6"/>
<path d="M219.201 42.4181C217.158 42.4157 215.165 43.0468 213.496 44.2243H224.898C223.231 43.0481 221.241 42.4172 219.201 42.4181Z" fill="#E6E6E6"/>
<path d="M295.937 30.9856C295.689 26.605 293.893 22.4548 290.87 19.2749C287.847 16.095 283.793 14.0921 279.431 13.6233C275.068 13.1545 270.681 14.2503 267.051 16.7153C263.422 19.1803 260.785 22.8543 259.613 27.0823C259.388 27.0742 259.164 27.0652 258.938 27.0652C254.938 27.0659 251.046 28.3617 247.844 30.7587C244.642 33.1557 242.302 36.525 241.174 40.3625C238.524 39.198 235.562 38.9453 232.753 39.6441C229.943 40.3429 227.445 41.9538 225.649 44.2243H283.4C285.084 44.2291 286.753 43.8939 288.305 43.2387C289.857 42.5835 291.261 41.6218 292.433 40.4112C293.605 39.2007 294.52 37.7661 295.124 36.1935C295.729 34.6208 296.009 32.9423 295.95 31.2586C295.946 31.1677 295.942 31.0767 295.937 30.9856Z" fill="#E6E6E6"/>
<path d="M257.435 159.139L264.147 159.143L264.148 158.077L257.436 158.074L257.435 159.139Z" fill="#3F3D56"/>
<path d="M208.907 158.314L210.292 158.634L262.922 158.662L263.395 157.56C264.221 155.668 264.504 153.585 264.214 151.542C263.987 150.019 263.419 148.506 262.129 147.848L259.793 132.292L230.675 132.24L219.41 141.327C219.41 141.327 214.096 141.231 211.209 144.825C210.167 146.162 209.552 147.781 209.444 149.471L209.33 151.341L208.907 158.314Z" fill="black"/>
<path d="M220.466 164.553C224.056 164.553 226.965 161.643 226.965 158.054C226.965 154.465 224.056 151.555 220.466 151.555C216.877 151.555 213.968 154.465 213.968 158.054C213.968 161.643 216.877 164.553 220.466 164.553Z" fill="#212121"/>
<path d="M220.467 161.474C222.356 161.474 223.887 159.943 223.887 158.054C223.887 156.165 222.356 154.633 220.467 154.633C218.578 154.633 217.046 156.165 217.046 158.054C217.046 159.943 218.578 161.474 220.467 161.474Z" fill="#CCCCCC"/>
<path d="M252.535 164.57C256.124 164.57 259.034 161.66 259.034 158.071C259.034 154.482 256.124 151.572 252.535 151.572C248.946 151.572 246.036 154.482 246.036 158.071C246.036 161.66 248.946 164.57 252.535 164.57Z" fill="#212121"/>
<path d="M252.535 161.491C254.424 161.491 255.955 159.96 255.955 158.071C255.955 156.182 254.424 154.65 252.535 154.65C250.646 154.65 249.114 156.182 249.114 158.071C249.114 159.96 250.646 161.491 252.535 161.491Z" fill="#CCCCCC"/>
<path d="M223.886 140.265L239.607 140.271H241.526L244.766 140.274V140.037L244.769 137.188L244.771 133.989H242.615L240.696 133.987L237.297 133.984H235.378L231.453 133.982L223.886 140.265Z" fill="white"/>
<path d="M247.325 140.276L255.633 140.28L255.635 138.65V135.801L255.638 133.996H254.421L252.502 133.993L247.327 133.991L247.325 140.276Z" fill="white"/>
<path d="M243.698 146.986L244.763 146.987L244.765 144.962L243.699 144.962L243.698 146.986Z" fill="#212121"/>
<path d="M228.145 143.142L228.146 142.077L226.122 142.076L226.121 143.141L228.145 143.142Z" fill="#212121"/>
<path d="M227.4 142.545L227.283 142.545C226.99 142.545 226.701 142.487 226.431 142.375C226.161 142.263 225.915 142.099 225.709 141.892C225.502 141.685 225.338 141.44 225.226 141.17C225.115 140.899 225.057 140.61 225.057 140.317C225.057 140.025 225.115 139.735 225.227 139.465C225.339 139.195 225.503 138.95 225.71 138.743C225.917 138.537 226.163 138.373 226.433 138.261C226.703 138.149 226.993 138.092 227.285 138.092L227.402 138.092L227.4 142.545Z" fill="#212121"/>
<path d="M209.33 151.341C210.136 151.429 210.947 151.229 211.62 150.778C212.293 150.326 212.785 149.652 213.009 148.873C213.234 148.094 213.176 147.261 212.847 146.521C212.518 145.78 211.938 145.18 211.209 144.825C210.167 146.162 209.553 147.781 209.444 149.472L209.33 151.341Z" fill="#212121"/>
<path d="M240.696 133.987L244.766 140.037L244.769 137.188L242.615 133.989L240.696 133.987Z" fill="#F2F2F2"/>
<path d="M252.502 133.993L255.635 138.65V135.801L254.421 133.996L252.502 133.993Z" fill="#F2F2F2"/>
<path d="M235.378 133.984L239.607 140.271H241.526L237.297 133.984H235.378Z" fill="#F2F2F2"/>
</svg>
