<svg width="600" height="600" viewBox="0 0 600 600" fill="none" xmlns="http://www.w3.org/2000/svg">
<g clip-path="url(#clip0_1_10)">
<circle cx="300" cy="300" r="300" fill="url(#paint0_linear_1_10)"/>
<g filter="url(#filter0_d_1_10)">
<path d="M187.945 300.866C149.945 388.866 96.7781 427.533 74.9448 435.866C72.5448 439.866 75.2781 441.866 76.9448 442.366H200.445C213.945 443.2 243.845 425.666 255.445 348.866C271.045 218.066 305.945 162.033 321.445 150.366C325.111 147.533 331.345 141.566 326.945 140.366C274.445 132.366 235.445 190.866 187.945 300.866Z" fill="white"/>
<path d="M372.445 442.366H523.945C526.945 441.866 526.945 438.366 523.945 436.366C485.445 413.866 441.445 391.866 401.445 322.366C346.445 222.866 378.445 147.366 378.945 146.366C379.445 145.366 380.945 139.866 379.945 138.366C379.145 137.166 362.278 139.2 353.945 140.366C340.278 148.033 312.245 187.266 309.445 282.866C314.645 412.066 353.611 443.033 372.445 442.366Z" fill="white"/>
</g>
</g>
<defs>
<filter id="filter0_d_1_10" x="70" y="138" width="460.195" height="318.394" filterUnits="userSpaceOnUse" color-interpolation-filters="sRGB">
<feFlood flood-opacity="0" result="BackgroundImageFix"/>
<feColorMatrix in="SourceAlpha" type="matrix" values="0 0 0 0 0 0 0 0 0 0 0 0 0 0 0 0 0 0 127 0" result="hardAlpha"/>
<feOffset dy="10"/>
<feGaussianBlur stdDeviation="2"/>
<feComposite in2="hardAlpha" operator="out"/>
<feColorMatrix type="matrix" values="0 0 0 0 0 0 0 0 0 0 0 0 0 0 0 0 0 0 0.25 0"/>
<feBlend mode="normal" in2="BackgroundImageFix" result="effect1_dropShadow_1_10"/>
<feBlend mode="normal" in="SourceGraphic" in2="effect1_dropShadow_1_10" result="shape"/>
</filter>
<linearGradient id="paint0_linear_1_10" x1="300" y1="0" x2="300" y2="600" gradientUnits="userSpaceOnUse">
<stop stop-color="#209D6D"/>
<stop offset="1" stop-color="#0B3726"/>
</linearGradient>
<clipPath id="clip0_1_10">
<rect width="600" height="600" fill="white"/>
</clipPath>
</defs>
</svg>
