<svg width="359" height="177" viewBox="0 0 359 177" fill="none" xmlns="http://www.w3.org/2000/svg">
<g filter="url(#filter0_d_0_1)">
<rect x="17" y="3" width="321" height="139" rx="20" fill="#E4E4E4"/>
</g>
<path d="M118 107.25C114.719 107.25 112.664 105 112.664 101.359C112.664 97.7266 114.734 95.4766 118 95.4766C120.625 95.4766 122.641 97.1328 122.938 99.5312H120.617C120.32 98.2891 119.297 97.4844 118 97.4844C116.219 97.4844 115.07 98.9766 115.07 101.352C115.07 103.758 116.203 105.242 118.008 105.242C119.328 105.242 120.297 104.516 120.625 103.312H122.945C122.578 105.719 120.68 107.25 118 107.25ZM128.211 107.18C125.68 107.18 124.062 105.555 124.062 102.805C124.062 100.094 125.703 98.4453 128.211 98.4453C130.719 98.4453 132.359 100.086 132.359 102.805C132.359 105.562 130.742 107.18 128.211 107.18ZM128.211 105.438C129.328 105.438 130.039 104.492 130.039 102.812C130.039 101.148 129.32 100.188 128.211 100.188C127.102 100.188 126.375 101.148 126.375 102.812C126.375 104.492 127.086 105.438 128.211 105.438ZM137.07 107.18C134.898 107.18 133.477 106.117 133.32 104.344H135.492C135.688 105.055 136.227 105.414 137.07 105.414C137.977 105.414 138.477 105.016 138.477 104.406C138.477 103.75 138.008 103.445 137.078 103.445H135.922V101.961H137.016C137.82 101.961 138.234 101.672 138.234 101.078C138.234 100.531 137.836 100.164 137.031 100.164C136.234 100.164 135.727 100.516 135.625 101.148H133.477C133.641 99.4688 134.969 98.4453 137.016 98.4453C139.25 98.4453 140.453 99.3359 140.453 100.828C140.453 101.664 139.977 102.344 139.195 102.562V102.625C140.211 102.891 140.75 103.562 140.75 104.492C140.75 106.141 139.344 107.18 137.07 107.18ZM147.688 105.273V100.336H145.18L144.992 102.984C144.93 103.875 144.758 104.648 144.383 105.211V105.273H147.688ZM143.492 109.172H141.422V105.273H142.062C142.672 104.93 142.906 103.969 142.984 102.836L143.258 98.625H149.961V105.273H151.203V109.172H149.125V107H143.492V109.172ZM155.461 105.484C156.453 105.484 157.273 104.836 157.273 103.93V103.32L155.508 103.43C154.656 103.492 154.172 103.875 154.172 104.469C154.172 105.094 154.688 105.484 155.461 105.484ZM154.711 107.133C153.117 107.133 151.906 106.102 151.906 104.594C151.906 103.07 153.078 102.188 155.164 102.062L157.273 101.938V101.383C157.273 100.602 156.727 100.148 155.867 100.148C155.016 100.148 154.477 100.57 154.367 101.188H152.281C152.367 99.5625 153.75 98.4453 155.969 98.4453C158.117 98.4453 159.516 99.5547 159.516 101.242V107H157.312V105.719H157.266C156.797 106.609 155.758 107.133 154.711 107.133ZM167.844 98.625V100.344H165.352V107H163.078V100.344H160.578V98.625H167.844ZM172.539 102.727H171.281V105.297H172.539C173.367 105.297 173.898 104.773 173.898 104.008C173.898 103.242 173.359 102.727 172.539 102.727ZM169.008 107V98.625H171.281V101.047H172.914C174.891 101.047 176.156 102.203 176.156 104.023C176.156 105.844 174.891 107 172.914 107H169.008ZM186.016 107V100.344H182.875V107H180.602V98.625H188.289V107H186.016ZM193.773 107.18C191.242 107.18 189.625 105.555 189.625 102.805C189.625 100.094 191.266 98.4453 193.773 98.4453C196.281 98.4453 197.922 100.086 197.922 102.805C197.922 105.562 196.305 107.18 193.773 107.18ZM193.773 105.438C194.891 105.438 195.602 104.492 195.602 102.812C195.602 101.148 194.883 100.188 193.773 100.188C192.664 100.188 191.938 101.148 191.938 102.812C191.938 104.492 192.648 105.438 193.773 105.438ZM203 100.133C202 100.133 201.281 100.891 201.203 101.938H204.758C204.711 100.867 204.016 100.133 203 100.133ZM204.789 104.438H206.883C206.633 106.078 205.133 107.18 203.062 107.18C200.484 107.18 198.938 105.531 198.938 102.852C198.938 100.18 200.5 98.4453 202.977 98.4453C205.414 98.4453 206.953 100.094 206.953 102.641V103.336H201.18V103.477C201.18 104.672 201.938 105.492 203.102 105.492C203.938 105.492 204.578 105.078 204.789 104.438ZM211.664 107.18C209.492 107.18 208.07 106.117 207.914 104.344H210.086C210.281 105.055 210.82 105.414 211.664 105.414C212.57 105.414 213.07 105.016 213.07 104.406C213.07 103.75 212.602 103.445 211.672 103.445H210.516V101.961H211.609C212.414 101.961 212.828 101.672 212.828 101.078C212.828 100.531 212.43 100.164 211.625 100.164C210.828 100.164 210.32 100.516 210.219 101.148H208.07C208.234 99.4688 209.562 98.4453 211.609 98.4453C213.844 98.4453 215.047 99.3359 215.047 100.828C215.047 101.664 214.57 102.344 213.789 102.562V102.625C214.805 102.891 215.344 103.562 215.344 104.492C215.344 106.141 213.938 107.18 211.664 107.18ZM222.281 105.273V100.336H219.773L219.586 102.984C219.523 103.875 219.352 104.648 218.977 105.211V105.273H222.281ZM218.086 109.172H216.016V105.273H216.656C217.266 104.93 217.5 103.969 217.578 102.836L217.852 98.625H224.555V105.273H225.797V109.172H223.719V107H218.086V109.172ZM231.203 102.5L234.742 107H231.984L229.156 103.406H229.094V107H226.82V98.625H229.094V101.992H229.156L231.938 98.625H234.547L231.203 102.5ZM236.562 110.102C236.484 110.102 235.773 110.094 235.703 110.078V108.32C235.773 108.336 236.188 108.336 236.273 108.336C237.109 108.336 237.523 108.07 237.68 107.406C237.68 107.375 237.766 107.039 237.75 107.008L234.836 98.625H237.344L239.125 105.172H239.164L240.945 98.625H243.352L240.469 107.188C239.75 109.336 238.703 110.102 236.562 110.102Z" fill="#474747"/>
<rect x="151" y="30" width="54" height="52" rx="20" fill="#0C9762" fill-opacity="0.3"/>
<path d="M197.831 50.5528C197.64 50.3198 197.355 50.1838 197.056 50.1838H193.255C192.317 47.7098 191.095 45.2857 189.706 44.3707C184.901 41.2097 172.156 41.2097 167.351 44.3707C165.961 45.2867 164.744 47.7137 163.801 50.1838H160C159.698 50.1838 159.414 50.3198 159.225 50.5528C159.035 50.7848 158.959 51.0918 159.021 51.3868L159.584 54.1148C159.68 54.5798 160.09 54.9117 160.563 54.9117H161.689C160.602 56.1657 160.075 57.7447 160.068 59.3247C160.061 61.2767 160.802 63.0408 162.157 64.2887C162.172 64.3018 162.187 64.3107 162.201 64.3237V68.1407C162.201 68.9677 162.873 69.6407 163.701 69.6407H167.207C168.035 69.6407 168.707 68.9677 168.707 68.1407V66.6067H188.348V68.1407C188.348 68.9677 189.02 69.6407 189.848 69.6407H193.354C194.18 69.6407 194.854 68.9677 194.854 68.1407V64.3988C196.292 63.0818 196.979 61.2697 196.988 59.4607C196.994 57.8267 196.443 56.1898 195.292 54.9098H196.493C196.968 54.9098 197.378 54.5778 197.472 54.1118L198.036 51.3848C198.094 51.0918 198.021 50.7868 197.831 50.5528ZM168.998 46.8758C172.828 44.3548 184.227 44.3548 188.055 46.8758C188.799 47.3637 189.756 49.3368 190.633 51.7528H166.422C167.297 49.3378 168.254 47.3658 168.998 46.8758ZM164.512 59.7008C164.512 58.0708 165.834 56.7508 167.463 56.7508C169.094 56.7508 170.414 58.0708 170.414 59.7008C170.414 61.3307 169.094 62.6517 167.463 62.6517C165.834 62.6517 164.512 61.3307 164.512 59.7008ZM189.631 62.6517C188.002 62.6517 186.68 61.3307 186.68 59.7008C186.68 58.0708 188.002 56.7508 189.631 56.7508C191.262 56.7508 192.582 58.0708 192.582 59.7008C192.582 61.3307 191.26 62.6517 189.631 62.6517Z" fill="#0C9762"/>
<defs>
<filter id="filter0_d_0_1" x="0" y="0" width="359" height="177" filterUnits="userSpaceOnUse" color-interpolation-filters="sRGB">
<feFlood flood-opacity="0" result="BackgroundImageFix"/>
<feColorMatrix in="SourceAlpha" type="matrix" values="0 0 0 0 0 0 0 0 0 0 0 0 0 0 0 0 0 0 127 0" result="hardAlpha"/>
<feOffset dx="2" dy="16"/>
<feGaussianBlur stdDeviation="9.5"/>
<feColorMatrix type="matrix" values="0 0 0 0 0 0 0 0 0 0 0 0 0 0 0 0 0 0 0.09 0"/>
<feBlend mode="normal" in2="BackgroundImageFix" result="effect1_dropShadow_0_1"/>
<feBlend mode="normal" in="SourceGraphic" in2="effect1_dropShadow_0_1" result="shape"/>
</filter>
</defs>
</svg>
