<svg width="20" height="19" viewBox="0 0 20 19" fill="none" xmlns="http://www.w3.org/2000/svg">
<path d="M9.52441 1.08203C9.67409 0.621375 10.3259 0.621378 10.4756 1.08203L11.9941 5.75488C12.195 6.37292 12.7711 6.79199 13.4209 6.79199H18.335C18.8193 6.79199 19.0207 7.41158 18.6289 7.69629L14.6533 10.585C14.1276 10.9669 13.9077 11.6437 14.1084 12.2617L15.627 16.9355C15.7766 17.3961 15.2493 17.7795 14.8574 17.4951L10.8818 14.6064C10.3561 14.2245 9.6439 14.2245 9.11816 14.6064L5.14258 17.4951C4.75074 17.7795 4.2234 17.3961 4.37305 16.9355L5.8916 12.2617C6.09235 11.6437 5.87238 10.9669 5.34668 10.585L1.37109 7.69629C0.979264 7.41158 1.18069 6.79199 1.66504 6.79199H6.5791C7.22894 6.79199 7.80505 6.37292 8.00586 5.75488L9.52441 1.08203Z" fill="black" stroke="black"/>
</svg>
