<svg width="14" height="17" viewBox="0 0 14 17" fill="none" xmlns="http://www.w3.org/2000/svg">
<path d="M4.03568 0.146399C3.84042 -0.0488625 3.52384 -0.0488625 3.32858 0.146399L0.146595 3.32838C-0.0486672 3.52364 -0.0486672 3.84023 0.146595 4.03549C0.341857 4.23075 0.65844 4.23075 0.853702 4.03549L3.68213 1.20706L6.51056 4.03549C6.70582 4.23075 7.0224 4.23075 7.21766 4.03549C7.41293 3.84023 7.41293 3.52364 7.21766 3.32838L4.03568 0.146399ZM3.68213 14.6421H4.18213L4.18213 0.499953H3.68213H3.18213L3.18213 14.6421H3.68213Z" fill="#474747"/>
<path d="M9.32858 16.0665C9.52384 16.2618 9.84042 16.2618 10.0357 16.0665L13.2177 12.8845C13.4129 12.6892 13.4129 12.3727 13.2177 12.1774C13.0224 11.9821 12.7058 11.9821 12.5106 12.1774L9.68213 15.0058L6.8537 12.1774C6.65844 11.9821 6.34186 11.9821 6.1466 12.1774C5.95133 12.3727 5.95133 12.6892 6.1466 12.8845L9.32858 16.0665ZM9.68213 1.5708H9.18213V15.7129H9.68213H10.1821V1.5708H9.68213Z" fill="#474747"/>
</svg>
