<svg width="12" height="12" viewBox="0 0 12 12" fill="none" xmlns="http://www.w3.org/2000/svg">
<path d="M6 3.70174C5.76495 3.72883 5.58756 3.92785 5.58756 4.16445C5.58756 4.40106 5.76495 4.60007 6 4.62717C6.1235 4.62889 6.24235 4.58016 6.3291 4.49225C6.41586 4.40434 6.463 4.28485 6.45965 4.16139C6.45635 3.90891 6.25248 3.70504 6 3.70174Z" fill="#5A5A5A"/>
<path d="M6 5.4668C5.87759 5.46514 5.7597 5.51303 5.67314 5.5996C5.58657 5.68616 5.53868 5.80405 5.54035 5.92646V7.83861C5.54035 8.09247 5.74614 8.29826 6 8.29826C6.25386 8.29826 6.45965 8.09247 6.45965 7.83861V5.93871C6.46296 5.8147 6.416 5.69461 6.32943 5.60574C6.24287 5.51687 6.12406 5.46676 6 5.4668Z" fill="#5A5A5A"/>
<path fill-rule="evenodd" clip-rule="evenodd" d="M6 0C2.68769 0.00337819 0.00337819 2.68769 0 6C0 9.31371 2.68629 12 6 12C9.31371 12 12 9.31371 12 6C11.9966 2.68769 9.31231 0.00337819 6 0ZM6 11.0807C3.19401 11.0807 0.919305 8.80599 0.919305 6C0.919305 3.19401 3.19401 0.919305 6 0.919305C8.80599 0.919305 11.0807 3.19401 11.0807 6C11.0773 8.80459 8.80459 11.0773 6 11.0807Z" fill="#5A5A5A"/>
</svg>
