<svg width="5" height="16" viewBox="0 0 5 16" fill="none" xmlns="http://www.w3.org/2000/svg">
<path d="M2.17275 8.83334C2.68696 8.83334 3.10381 8.46025 3.10381 8.00001C3.10381 7.53977 2.68696 7.16668 2.17275 7.16668C1.65855 7.16668 1.2417 7.53977 1.2417 8.00001C1.2417 8.46025 1.65855 8.83334 2.17275 8.83334Z" fill="#FDCD03"/>
<path d="M2.17275 3.00001C2.68696 3.00001 3.10381 2.62691 3.10381 2.16668C3.10381 1.70644 2.68696 1.33334 2.17275 1.33334C1.65855 1.33334 1.2417 1.70644 1.2417 2.16668C1.2417 2.62691 1.65855 3.00001 2.17275 3.00001Z" fill="#FDCD03"/>
<path d="M2.17275 14.6667C2.68696 14.6667 3.10381 14.2936 3.10381 13.8333C3.10381 13.3731 2.68696 13 2.17275 13C1.65855 13 1.2417 13.3731 1.2417 13.8333C1.2417 14.2936 1.65855 14.6667 2.17275 14.6667Z" fill="#FDCD03"/>
<path d="M2.17275 8.83334C2.68696 8.83334 3.10381 8.46025 3.10381 8.00001C3.10381 7.53977 2.68696 7.16668 2.17275 7.16668C1.65855 7.16668 1.2417 7.53977 1.2417 8.00001C1.2417 8.46025 1.65855 8.83334 2.17275 8.83334Z" stroke="#FDCD03" stroke-width="2" stroke-linecap="round" stroke-linejoin="round"/>
<path d="M2.17275 3.00001C2.68696 3.00001 3.10381 2.62691 3.10381 2.16668C3.10381 1.70644 2.68696 1.33334 2.17275 1.33334C1.65855 1.33334 1.2417 1.70644 1.2417 2.16668C1.2417 2.62691 1.65855 3.00001 2.17275 3.00001Z" stroke="#FDCD03" stroke-width="2" stroke-linecap="round" stroke-linejoin="round"/>
<path d="M2.17275 14.6667C2.68696 14.6667 3.10381 14.2936 3.10381 13.8333C3.10381 13.3731 2.68696 13 2.17275 13C1.65855 13 1.2417 13.3731 1.2417 13.8333C1.2417 14.2936 1.65855 14.6667 2.17275 14.6667Z" stroke="#FDCD03" stroke-width="2" stroke-linecap="round" stroke-linejoin="round"/>
</svg>
