<svg width="4" height="16" viewBox="0 0 4 16" fill="none" xmlns="http://www.w3.org/2000/svg">
<path d="M1.93105 8.5C2.44526 8.5 2.86211 8.1269 2.86211 7.66667C2.86211 7.20643 2.44526 6.83333 1.93105 6.83333C1.41685 6.83333 1 7.20643 1 7.66667C1 8.1269 1.41685 8.5 1.93105 8.5Z" fill="#1E1E1E"/>
<path d="M1.93105 2.66667C2.44526 2.66667 2.86211 2.29357 2.86211 1.83333C2.86211 1.3731 2.44526 1 1.93105 1C1.41685 1 1 1.3731 1 1.83333C1 2.29357 1.41685 2.66667 1.93105 2.66667Z" fill="#1E1E1E"/>
<path d="M1.93105 14.3333C2.44526 14.3333 2.86211 13.9602 2.86211 13.5C2.86211 13.0398 2.44526 12.6667 1.93105 12.6667C1.41685 12.6667 1 13.0398 1 13.5C1 13.9602 1.41685 14.3333 1.93105 14.3333Z" fill="#1E1E1E"/>
<path d="M1.93105 8.5C2.44526 8.5 2.86211 8.1269 2.86211 7.66667C2.86211 7.20643 2.44526 6.83333 1.93105 6.83333C1.41685 6.83333 1 7.20643 1 7.66667C1 8.1269 1.41685 8.5 1.93105 8.5Z" stroke="#474747" stroke-width="2" stroke-linecap="round" stroke-linejoin="round"/>
<path d="M1.93105 2.66667C2.44526 2.66667 2.86211 2.29357 2.86211 1.83333C2.86211 1.3731 2.44526 1 1.93105 1C1.41685 1 1 1.3731 1 1.83333C1 2.29357 1.41685 2.66667 1.93105 2.66667Z" stroke="#474747" stroke-width="2" stroke-linecap="round" stroke-linejoin="round"/>
<path d="M1.93105 14.3333C2.44526 14.3333 2.86211 13.9602 2.86211 13.5C2.86211 13.0398 2.44526 12.6667 1.93105 12.6667C1.41685 12.6667 1 13.0398 1 13.5C1 13.9602 1.41685 14.3333 1.93105 14.3333Z" stroke="#474747" stroke-width="2" stroke-linecap="round" stroke-linejoin="round"/>
</svg>
