<svg width="27" height="20" viewBox="0 0 27 20" fill="none" xmlns="http://www.w3.org/2000/svg">
<path d="M26.8449 5.91271C26.7128 5.75163 26.5158 5.65761 26.3091 5.65761H23.6814C23.0329 3.94728 22.1881 2.27151 21.2279 1.63895C17.9061 -0.546318 9.09516 -0.546318 5.77335 1.63895C4.81241 2.2722 3.97107 3.95004 3.31916 5.65761H0.691441C0.482662 5.65761 0.286326 5.75163 0.155666 5.91271C0.024315 6.07309 -0.0282255 6.28533 0.0146364 6.48927L0.403851 8.3752C0.470218 8.69666 0.75366 8.92618 1.08066 8.92618H1.85908C1.10762 9.7931 0.74329 10.8847 0.738451 11.977C0.733612 13.3264 1.24588 14.5459 2.18262 15.4087C2.19299 15.4177 2.20336 15.4239 2.21304 15.4329V18.0717C2.21304 18.6434 2.67761 19.1087 3.25003 19.1087H5.6738C6.24622 19.1087 6.71079 18.6434 6.71079 18.0717V17.0112H20.289V18.0717C20.289 18.6434 20.7536 19.1087 21.326 19.1087H23.7498C24.3208 19.1087 24.7868 18.6434 24.7868 18.0717V15.4848C25.7809 14.5743 26.2559 13.3216 26.2621 12.071C26.2662 10.9414 25.8853 9.80969 25.0896 8.9248H25.9199C26.2482 8.9248 26.5317 8.69528 26.5967 8.37312L26.9866 6.48789C27.0267 6.28533 26.9762 6.07448 26.8449 5.91271ZM6.91196 3.37072C9.55973 1.62789 17.4401 1.62789 20.0865 3.37072C20.6008 3.70808 21.2624 5.07206 21.8687 6.74229H5.13111C5.73602 5.07275 6.39762 3.70946 6.91196 3.37072ZM3.81069 12.2369C3.81069 11.1101 4.72462 10.1975 5.85078 10.1975C6.97833 10.1975 7.89087 11.1101 7.89087 12.2369C7.89087 13.3638 6.97833 14.277 5.85078 14.277C4.72462 14.277 3.81069 13.3638 3.81069 12.2369ZM21.176 14.277C20.0499 14.277 19.1359 13.3638 19.1359 12.2369C19.1359 11.1101 20.0499 10.1975 21.176 10.1975C22.3036 10.1975 23.2161 11.1101 23.2161 12.2369C23.2161 13.3638 22.3022 14.277 21.176 14.277Z" fill="#0C9762"/>
</svg>
