<svg width="28" height="20" viewBox="0 0 28 20" fill="none" xmlns="http://www.w3.org/2000/svg">
<path d="M27.3449 5.91271C27.2128 5.75163 27.0158 5.65761 26.8091 5.65761H24.1814C23.5329 3.94728 22.6881 2.27151 21.7279 1.63895C18.4061 -0.546318 9.59516 -0.546318 6.27335 1.63895C5.31241 2.2722 4.47107 3.95004 3.81916 5.65761H1.19144C0.982662 5.65761 0.786326 5.75163 0.655666 5.91271C0.524315 6.07309 0.471774 6.28533 0.514636 6.48927L0.903851 8.3752C0.970218 8.69666 1.25366 8.92618 1.58066 8.92618H2.35908C1.60762 9.7931 1.24329 10.8847 1.23845 11.977C1.23361 13.3264 1.74588 14.5459 2.68262 15.4087C2.69299 15.4177 2.70336 15.4239 2.71304 15.4329V18.0717C2.71304 18.6434 3.17761 19.1087 3.75003 19.1087H6.1738C6.74622 19.1087 7.21079 18.6434 7.21079 18.0717V17.0112H20.789V18.0717C20.789 18.6434 21.2536 19.1087 21.826 19.1087H24.2498C24.8208 19.1087 25.2868 18.6434 25.2868 18.0717V15.4848C26.2809 14.5743 26.7559 13.3216 26.7621 12.071C26.7662 10.9414 26.3853 9.80969 25.5896 8.9248H26.4199C26.7482 8.9248 27.0317 8.69528 27.0967 8.37312L27.4866 6.48789C27.5267 6.28533 27.4762 6.07448 27.3449 5.91271ZM7.41196 3.37072C10.0597 1.62789 17.9401 1.62789 20.5865 3.37072C21.1008 3.70808 21.7624 5.07206 22.3687 6.74229H5.63111C6.23602 5.07275 6.89762 3.70946 7.41196 3.37072ZM4.31069 12.2369C4.31069 11.1101 5.22462 10.1975 6.35078 10.1975C7.47833 10.1975 8.39087 11.1101 8.39087 12.2369C8.39087 13.3638 7.47833 14.277 6.35078 14.277C5.22462 14.277 4.31069 13.3638 4.31069 12.2369ZM21.676 14.277C20.5499 14.277 19.6359 13.3638 19.6359 12.2369C19.6359 11.1101 20.5499 10.1975 21.676 10.1975C22.8036 10.1975 23.7161 11.1101 23.7161 12.2369C23.7161 13.3638 22.8022 14.277 21.676 14.277Z" fill="#FDCD03"/>
</svg>
