<svg width="21" height="21" viewBox="0 0 21 21" fill="none" xmlns="http://www.w3.org/2000/svg">
<g clip-path="url(#clip0_104_1692)">
<path d="M10.6495 10.1158C9.25974 10.1158 8.05634 9.61736 7.07309 8.63395C6.08984 7.6507 5.5914 6.44762 5.5914 5.05774C5.5914 3.66833 6.08984 2.4651 7.07325 1.48153C8.05666 0.498436 9.2599 0 10.6495 0C12.0393 0 13.2424 0.498436 14.2257 1.48169C15.2089 2.46494 15.7075 3.66817 15.7075 5.05774C15.7075 6.44762 15.2089 7.65086 14.2255 8.63411C13.2421 9.6172 12.0389 10.1158 10.6495 10.1158Z" fill="#474747"/>
<path d="M1.7994 16.1482C1.82776 15.739 1.88512 15.2926 1.96955 14.8213C2.05479 14.3464 2.16454 13.8975 2.29591 13.4871C2.43162 13.063 2.61619 12.6442 2.84434 12.2429C3.08114 11.8263 3.35928 11.4636 3.67138 11.1651C3.99774 10.8528 4.39732 10.6018 4.85939 10.4187C5.31985 10.2365 5.83015 10.1442 6.37601 10.1442C6.59038 10.1442 6.7977 10.2322 7.19808 10.4928C7.4445 10.6535 7.73273 10.8394 8.05444 11.0449C8.32954 11.2202 8.7022 11.3844 9.16251 11.5331C9.6116 11.6784 10.0676 11.7521 10.5176 11.7521C10.9677 11.7521 11.4235 11.6784 11.8731 11.5331C12.3329 11.3846 12.7056 11.2204 12.9803 11.0451C13.299 10.8415 13.5874 10.6556 13.8375 10.4927C14.2374 10.232 14.4449 10.144 14.6592 10.144C15.2053 10.144 15.7154 10.2365 16.1757 10.4188C16.6374 10.6016 17.0372 10.8527 17.3639 11.1653C17.6758 11.4639 17.9541 11.8265 18.1906 12.2429C18.4186 12.6442 18.6031 13.0629 18.739 13.4873C18.8702 13.8976 18.98 14.3464 19.0652 14.8213C19.1497 15.292 19.207 15.7385 19.2354 16.1487C19.2632 16.5505 19.2773 16.9675 19.2773 17.3887C19.2773 18.485 18.9289 19.3724 18.2417 20.0269C17.563 20.6727 16.665 21.0004 15.573 21.0004H5.46133C4.36929 21.0004 3.47159 20.6729 2.79275 20.0269C2.10542 19.3729 1.75694 18.4853 1.75694 17.3886C1.7571 16.9655 1.77136 16.5481 1.7994 16.1482Z" fill="#474747"/>
</g>
<defs>
<clipPath id="clip0_104_1692">
<rect width="21" height="21.0001" fill="white" transform="matrix(-1 0 0 1 21 0)"/>
</clipPath>
</defs>
</svg>
