<svg width="22" height="21" viewBox="0 0 22 21" fill="none" xmlns="http://www.w3.org/2000/svg">
<g clip-path="url(#clip0_100_1184)">
<path d="M11.1497 10.1158C9.75998 10.1158 8.55659 9.61736 7.57333 8.63395C6.59008 7.6507 6.09164 6.44762 6.09164 5.05774C6.09164 3.66833 6.59008 2.4651 7.57349 1.48153C8.55691 0.498436 9.76014 0 11.1497 0C12.5396 0 13.7427 0.498436 14.7259 1.48169C15.7092 2.46494 16.2078 3.66817 16.2078 5.05774C16.2078 6.44762 15.7092 7.65086 14.7258 8.63411C13.7423 9.6172 12.5391 10.1158 11.1497 10.1158Z" fill="#A3A9B5"/>
<path d="M2.2994 16.148C2.32776 15.7388 2.38512 15.2924 2.46955 14.8211C2.55479 14.3462 2.66454 13.8973 2.79591 13.487C2.93162 13.0629 3.11619 12.6441 3.34434 12.2427C3.58114 11.8261 3.85928 11.4634 4.17138 11.1649C4.49774 10.8527 4.89732 10.6016 5.35939 10.4185C5.81985 10.2363 6.33015 10.144 6.87601 10.144C7.09038 10.144 7.2977 10.232 7.69808 10.4927C7.9445 10.6534 8.23273 10.8392 8.55444 11.0448C8.82954 11.22 9.2022 11.3843 9.66251 11.5329C10.1116 11.6783 10.5676 11.752 11.0176 11.752C11.4677 11.752 11.9235 11.6783 12.3731 11.5329C12.8329 11.3844 13.2056 11.2202 13.4803 11.0449C13.799 10.8413 14.0874 10.6554 14.3375 10.4925C14.7374 10.2318 14.9449 10.1439 15.1592 10.1439C15.7053 10.1439 16.2154 10.2363 16.6757 10.4186C17.1374 10.6014 17.5372 10.8525 17.8639 11.1651C18.1758 11.4637 18.4541 11.8263 18.6906 12.2427C18.9186 12.6441 19.1031 13.0627 19.239 13.4871C19.3702 13.8974 19.48 14.3462 19.5652 14.8211C19.6497 15.2918 19.707 15.7383 19.7354 16.1485C19.7632 16.5503 19.7773 16.9674 19.7773 17.3886C19.7773 18.4848 19.4289 19.3722 18.7417 20.0267C18.063 20.6725 17.165 21.0002 16.073 21.0002H5.96133C4.86929 21.0002 3.97159 20.6727 3.29275 20.0267C2.60542 19.3727 2.25694 18.4851 2.25694 17.3884C2.2571 16.9653 2.27136 16.5479 2.2994 16.148Z" fill="#A3A9B5"/>
</g>
<defs>
<clipPath id="clip0_100_1184">
<rect width="21" height="21.0001" fill="white" transform="matrix(-1 0 0 1 21.5 0)"/>
</clipPath>
</defs>
</svg>
